# xmcd
#
# Track frame offsets: 
#        183
#        15385
#        42183
#        63125
#
# Disc length: 1182 seconds
#
# Revision: 3
# Processed by: cddbd v1.5.2PL0 Copyright (c) Steve Scherf et al.
# Submitted via: ExactAudioCopyFreeDBPlugin 1.0
#
DISCID=23049c04
DTITLE=Brother Beyond - He Ain't No Competition (Single)
DYEAR=1988
DGENRE=Pop/Rock
TTITLE0=He Ain't No Competition
TTITLE1=Call Me Lonely
TTITLE2=Somebody, Somewhere
TTITLE3=He Ain't No Competition (Extended)
EXTD=
EXTT0=
EXTT1=
EXTT2=
EXTT3=
PLAYORDER=
